<svg width="770" height="554" fill="none" xmlns="http://www.w3.org/2000/svg"><g clip-path="url(#clip0)"><path d="M358.02 51v42.47H235.53V51h1v41.47h120.49V51h1zm150.47 218.94h.5c0 9.64-7.81 17.45-17.44 17.45-9.63 0-17.44-7.81-17.44-17.45s7.81-17.45 17.44-17.45c9.64 0 17.44 7.81 17.44 17.45h-1c-.02-9.09-7.36-16.43-16.44-16.45-9.08.02-16.42 7.37-16.44 16.45.02 9.09 7.36 16.43 16.44 16.45 9.08-.02 16.43-7.36 16.44-16.45h.5zm-60.64 0h.5c0 9.64-7.81 17.45-17.44 17.45-9.64 0-17.44-7.81-17.44-17.45s7.81-17.45 17.44-17.45c9.63 0 17.44 7.81 17.44 17.45h-1c-.02-9.09-7.36-16.43-16.44-16.45-9.08.02-16.43 7.37-16.44 16.45.02 9.09 7.36 16.43 16.44 16.45 9.08-.02 16.42-7.36 16.44-16.45h.5zm-60.64 0h.5c0 9.64-7.81 17.45-17.44 17.45-9.64 0-17.44-7.81-17.44-17.45s7.81-17.45 17.44-17.45c9.63 0 17.44 7.81 17.44 17.45h-1c-.02-9.09-7.36-16.43-16.44-16.45-9.08.02-16.42 7.36-16.44 16.45.02 9.09 7.36 16.43 16.44 16.45 9.08-.02 16.42-7.36 16.44-16.45h.5zm-242.54 0h.5c0 9.64-7.81 17.45-17.44 17.45-9.64 0-17.44-7.81-17.44-17.45s7.81-17.45 17.44-17.45c9.63 0 17.44 7.81 17.44 17.45h-1c-.02-9.09-7.36-16.43-16.44-16.45-9.08.02-16.43 7.37-16.45 16.45.02 9.09 7.36 16.43 16.45 16.45 9.08-.02 16.42-7.36 16.44-16.45h.5zm340.54-47.42h.5c0 9.64-7.81 17.45-17.44 17.45-9.64 0-17.44-7.81-17.44-17.45s7.81-17.45 17.44-17.45c9.63 0 17.44 7.81 17.44 17.45h-1c-.02-9.08-7.36-16.43-16.44-16.45-9.08.02-16.43 7.37-16.44 16.45.02 9.09 7.36 16.43 16.44 16.45 9.08-.02 16.42-7.36 16.44-16.45h.5zm-60.64 0h.5c0 9.64-7.81 17.45-17.44 17.45-9.63 0-17.44-7.81-17.44-17.45s7.81-17.45 17.44-17.45c9.63 0 17.44 7.81 17.44 17.45h-1c-.02-9.08-7.36-16.43-16.44-16.45-9.08.02-16.43 7.37-16.44 16.45.02 9.09 7.36 16.43 16.44 16.45 9.08-.02 16.43-7.36 16.44-16.45h.5zm-60.64 0h.5c0 9.64-7.81 17.45-17.44 17.45-9.64 0-17.44-7.81-17.44-17.45s7.81-17.45 17.44-17.45c9.63 0 17.44 7.81 17.44 17.45h-1c-.02-9.08-7.36-16.43-16.44-16.45-9.08.02-16.43 7.37-16.45 16.45.02 9.09 7.36 16.43 16.45 16.45 9.08-.02 16.43-7.36 16.44-16.45h.5zm-60.63 0h.5c0 9.64-7.81 17.45-17.44 17.45-9.64 0-17.44-7.81-17.44-17.45s7.81-17.45 17.44-17.45c9.63 0 17.44 7.81 17.44 17.45h-1c-.02-9.08-7.36-16.43-16.44-16.45-9.08.02-16.43 7.37-16.45 16.45.02 9.09 7.36 16.43 16.45 16.45 9.08-.02 16.43-7.36 16.44-16.45h.5zm-60.64 0h.5c0 9.64-7.81 17.45-17.44 17.45-9.63 0-17.44-7.81-17.44-17.45s7.81-17.45 17.44-17.45c9.63 0 17.44 7.81 17.44 17.45h-1c-.02-9.08-7.36-16.43-16.44-16.45-9.08.02-16.43 7.37-16.44 16.45.02 9.09 7.36 16.43 16.44 16.45 9.08-.02 16.43-7.36 16.44-16.45h.5zm-60.64 0h.5c0 9.64-7.81 17.45-17.44 17.45-9.63 0-17.44-7.81-17.44-17.45s7.81-17.45 17.44-17.45c9.63 0 17.44 7.81 17.44 17.45h-1c-.02-9.08-7.36-16.43-16.44-16.45-9.08.02-16.43 7.37-16.44 16.45.02 9.09 7.36 16.43 16.44 16.45 9.08-.02 16.42-7.36 16.44-16.45h.5zm-60.64 0h.5c0 9.64-7.81 17.45-17.44 17.45-9.63 0-17.44-7.81-17.44-17.45s7.81-17.45 17.44-17.45c9.63 0 17.44 7.81 17.44 17.45h-1c-.02-9.08-7.36-16.43-16.44-16.45-9.08.01-16.42 7.36-16.44 16.45.02 9.09 7.36 16.43 16.44 16.45 9.08-.02 16.43-7.36 16.44-16.45h.5zm387.11-47.42h.5c0 9.64-7.81 17.45-17.44 17.45-9.63 0-17.44-7.81-17.44-17.45s7.81-17.45 17.44-17.45c9.64 0 17.44 7.81 17.44 17.45h-1c-.02-9.08-7.36-16.43-16.44-16.45-9.08.02-16.42 7.37-16.44 16.45.02 9.09 7.36 16.43 16.44 16.45 9.08-.02 16.43-7.36 16.44-16.45h.5zm-60.64 0h.5c0 9.64-7.81 17.45-17.44 17.45-9.64 0-17.44-7.81-17.44-17.45s7.81-17.45 17.44-17.45c9.63 0 17.44 7.81 17.44 17.45h-1c-.02-9.08-7.36-16.43-16.44-16.45-9.08.02-16.43 7.37-16.44 16.45.02 9.09 7.36 16.43 16.44 16.45 9.08-.02 16.42-7.36 16.44-16.45h.5zm-60.64 0h.5c0 9.64-7.81 17.45-17.44 17.45-9.64 0-17.44-7.81-17.44-17.45s7.81-17.45 17.44-17.45c9.63 0 17.44 7.81 17.44 17.45h-1c-.02-9.08-7.36-16.43-16.44-16.45-9.08.02-16.42 7.37-16.44 16.45.02 9.09 7.36 16.43 16.44 16.45 9.08-.02 16.42-7.36 16.44-16.45h.5zm-60.63 0h.5c0 9.64-7.81 17.45-17.44 17.45-9.63 0-17.44-7.81-17.44-17.45s7.81-17.45 17.44-17.45c9.63 0 17.44 7.81 17.44 17.45h-1c-.02-9.08-7.36-16.43-16.44-16.45-9.08.02-16.43 7.37-16.44 16.45.02 9.09 7.36 16.43 16.44 16.45 9.08-.02 16.43-7.36 16.44-16.45h.5zm-60.64 0h.5c0 9.64-7.81 17.45-17.44 17.45-9.63 0-17.44-7.81-17.44-17.45s7.81-17.45 17.44-17.45c9.63 0 17.44 7.81 17.44 17.45h-1c-.02-9.08-7.36-16.43-16.44-16.45-9.08.02-16.43 7.37-16.44 16.45.02 9.09 7.36 16.43 16.44 16.45 9.08-.02 16.43-7.36 16.44-16.45h.5zm-60.63 0h.5c0 9.64-7.81 17.45-17.44 17.45-9.64 0-17.44-7.81-17.44-17.45s7.81-17.45 17.44-17.45c9.63 0 17.44 7.81 17.44 17.45h-1c-.02-9.08-7.36-16.43-16.44-16.45-9.08.02-16.43 7.37-16.44 16.45.02 9.09 7.36 16.43 16.44 16.45 9.08-.02 16.43-7.36 16.44-16.45h.5zm-60.64 0h.5c0 9.64-7.81 17.45-17.44 17.45-9.64 0-17.44-7.81-17.44-17.45s7.81-17.45 17.44-17.45c9.63 0 17.44 7.81 17.44 17.45h-1c-.02-9.08-7.36-16.43-16.44-16.45-9.08.02-16.43 7.37-16.45 16.45.02 9.09 7.36 16.43 16.45 16.45 9.08-.02 16.42-7.36 16.44-16.45h.5zm340.54-47.42h.5c0 9.64-7.81 17.45-17.44 17.45-9.64 0-17.44-7.81-17.44-17.45s7.81-17.45 17.44-17.45c9.63 0 17.44 7.81 17.44 17.45h-1c-.02-9.08-7.36-16.44-16.44-16.45-9.08.02-16.43 7.37-16.44 16.45.02 9.09 7.36 16.44 16.44 16.45 9.08-.02 16.42-7.37 16.44-16.45h.5zm-60.64 0h.5c0 9.64-7.81 17.45-17.44 17.45-9.63 0-17.44-7.81-17.44-17.45s7.81-17.45 17.44-17.45c9.63 0 17.44 7.81 17.44 17.45h-1c-.02-9.08-7.36-16.44-16.44-16.45-9.08.02-16.43 7.37-16.44 16.45.02 9.09 7.36 16.44 16.44 16.45 9.08-.02 16.43-7.37 16.44-16.45h.5zm-60.64 0h.5c0 9.64-7.81 17.45-17.44 17.45-9.64 0-17.44-7.81-17.44-17.45s7.81-17.45 17.44-17.45c9.63 0 17.44 7.81 17.44 17.45h-1c-.02-9.08-7.36-16.44-16.44-16.45-9.08.02-16.43 7.37-16.45 16.45.02 9.09 7.36 16.44 16.45 16.45 9.08-.02 16.43-7.37 16.44-16.45h.5zm-60.63 0h.5c0 9.64-7.81 17.45-17.44 17.45-9.64 0-17.44-7.81-17.44-17.45s7.81-17.45 17.44-17.45c9.63 0 17.44 7.81 17.44 17.45h-1c-.02-9.08-7.36-16.44-16.44-16.45-9.08.02-16.43 7.37-16.45 16.45.02 9.09 7.36 16.44 16.45 16.45 9.08-.02 16.43-7.37 16.44-16.45h.5zm-60.64 0h.5c0 9.64-7.81 17.45-17.44 17.45-9.63 0-17.44-7.81-17.44-17.45s7.81-17.45 17.44-17.45c9.63 0 17.44 7.81 17.44 17.45h-1c-.02-9.08-7.36-16.44-16.44-16.45-9.08.02-16.43 7.37-16.44 16.45.02 9.09 7.36 16.44 16.44 16.45 9.08-.02 16.43-7.37 16.44-16.45h.5zm-60.64 0h.5c0 9.64-7.81 17.45-17.44 17.45-9.63 0-17.44-7.81-17.44-17.45s7.81-17.45 17.44-17.45c9.63 0 17.44 7.81 17.44 17.45h-1c-.02-9.08-7.36-16.44-16.44-16.45-9.08.01-16.43 7.36-16.44 16.45.02 9.09 7.36 16.44 16.44 16.45 9.08-.02 16.42-7.37 16.44-16.45h.5zm-60.64 0h.5c0 9.64-7.81 17.45-17.44 17.45-9.63 0-17.44-7.81-17.44-17.45s7.81-17.45 17.44-17.45c9.63 0 17.44 7.81 17.44 17.45h-1c-.02-9.08-7.36-16.44-16.44-16.45-9.08.01-16.42 7.36-16.44 16.45.02 9.09 7.36 16.44 16.44 16.45 9.08-.02 16.43-7.37 16.44-16.45h.5z" fill="url(#paint0_linear)"/></g><defs><linearGradient id="paint0_linear" x1="449.752" y1="90.15" x2="120.634" y2="325.775" gradientUnits="userSpaceOnUse"><stop stop-color="#005FFF"/><stop offset="1" stop-color="#D61587"/></linearGradient><clipPath id="clip0"><path fill="#fff" transform="translate(87 51)" d="M0 0h421.99v236.39H0z"/></clipPath></defs></svg>