<svg width="770" height="554" fill="none" xmlns="http://www.w3.org/2000/svg"><g clip-path="url(#clip0)"><path d="M308.55 95.65v.5h-71.93V80.6h72.43v15.55h-.5v-.5h-.5V81.6h-70.43v13.55h70.93v.5h-.5.5zm-47.34-25.26h.5c0 3.53-2.86 6.4-6.39 6.4s-6.39-2.86-6.39-6.4c0-3.53 2.86-6.39 6.39-6.39s6.39 2.86 6.39 6.39h-1a5.41 5.41 0 00-5.4-5.4 5.416 5.416 0 00-5.4 5.4 5.416 5.416 0 005.4 5.4 5.416 5.416 0 005.4-5.4h.5zm35.05 0h.5a6.4 6.4 0 01-6.4 6.4c-3.53 0-6.39-2.86-6.39-6.4 0-3.53 2.86-6.39 6.39-6.39s6.4 2.86 6.4 6.39h-1a5.416 5.416 0 00-5.4-5.4 5.416 5.416 0 00-5.4 5.4 5.416 5.416 0 005.4 5.4 5.416 5.416 0 005.4-5.4h.5zm219.77 167.92h.5c0 10.39-8.42 18.81-18.81 18.81-10.39 0-18.81-8.42-18.81-18.81 0-10.39 8.42-18.81 18.81-18.81 10.39 0 18.81 8.42 18.81 18.81h-1c-.02-9.84-7.97-17.79-17.81-17.81-9.83.02-17.79 7.97-17.81 17.81.02 9.83 7.97 17.79 17.81 17.81 9.84-.02 17.79-7.97 17.81-17.81h.5zm-449.91 0h.5c0 10.39-8.42 18.81-18.81 18.81-10.39 0-18.81-8.42-18.81-18.81 0-10.39 8.42-18.81 18.81-18.81 10.39 0 18.81 8.42 18.81 18.81h-1c-.02-9.84-7.97-17.79-17.81-17.81-9.84.02-17.79 7.97-17.81 17.81.02 9.83 7.97 17.79 17.81 17.81 9.83-.02 17.79-7.97 17.81-17.81h.5zm219.91 0h.5c0 10.39-8.42 18.81-18.81 18.81-10.39 0-18.81-8.42-18.81-18.81 0-10.39 8.42-18.81 18.81-18.81 10.39 0 18.81 8.42 18.81 18.81h-1c-.02-9.84-7.97-17.79-17.81-17.81-9.83.02-17.79 7.97-17.81 17.81.02 9.83 7.97 17.79 17.81 17.81 9.84-.02 17.79-7.97 17.81-17.81h.5zm120.6-81.33h.5c0 10.39-8.42 18.81-18.81 18.81-10.39 0-18.81-8.42-18.81-18.81 0-10.39 8.42-18.81 18.81-18.81 10.39 0 18.81 8.42 18.81 18.81h-1c-.02-9.83-7.97-17.79-17.81-17.81-9.83.02-17.79 7.97-17.81 17.81.02 9.83 7.97 17.79 17.81 17.81 9.83-.02 17.79-7.97 17.81-17.81h.5zm-230 0h.5c0 10.39-8.42 18.81-18.81 18.81-10.39 0-18.81-8.42-18.81-18.81 0-10.39 8.42-18.81 18.81-18.81 10.39 0 18.81 8.42 18.81 18.81h-1c-.02-9.83-7.97-17.79-17.81-17.81-9.83.02-17.79 7.97-17.81 17.81.02 9.83 7.97 17.79 17.81 17.81 9.83-.02 17.79-7.97 17.81-17.81h.5z" fill="url(#paint0_linear)"/></g><defs><linearGradient id="paint0_linear" x1="595.278" y1="73.481" x2="-184.581" y2="385.402" gradientUnits="userSpaceOnUse"><stop stop-color="#005FFF"/><stop offset="1" stop-color="#D61587"/></linearGradient><clipPath id="clip0"><path fill="#fff" transform="translate(29 64)" d="M0 0h487.53v193.12H0z"/></clipPath></defs></svg>