<svg width="770" height="554" fill="none" xmlns="http://www.w3.org/2000/svg"><g clip-path="url(#clip0)"><path d="M451.99 251.73v-.5c6.21-.01 11.24-5.04 11.25-11.25-.01-6.21-5.04-11.24-11.25-11.25a11.26 11.26 0 00-11.25 11.25 11.26 11.26 0 0011.25 11.25v1c-6.77 0-12.25-5.49-12.25-12.25 0-6.77 5.49-12.25 12.25-12.25 6.77 0 12.25 5.49 12.25 12.25 0 6.77-5.49 12.25-12.25 12.25v-.5zm-66.75-11.75h-.5c0-6.77 5.49-12.25 12.25-12.25 6.77 0 12.25 5.49 12.25 12.25 0 6.77-5.49 12.25-12.25 12.25-6.77 0-12.25-5.49-12.25-12.25h1a11.26 11.26 0 0011.25 11.25c6.21-.01 11.24-5.04 11.25-11.25-.01-6.21-5.04-11.24-11.25-11.25a11.26 11.26 0 00-11.25 11.25h-.5zm-43.25 11.75v-.5c6.21-.01 11.24-5.04 11.25-11.25-.01-6.21-5.04-11.24-11.25-11.25a11.26 11.26 0 00-11.25 11.25 11.26 11.26 0 0011.25 11.25v1c-6.77 0-12.25-5.49-12.25-12.25 0-6.77 5.49-12.25 12.25-12.25 6.77 0 12.25 5.49 12.25 12.25 0 6.77-5.49 12.25-12.25 12.25v-.5zm-66.75-11.75h-.5c0-6.77 5.49-12.25 12.25-12.25 6.77 0 12.25 5.49 12.25 12.25 0 6.77-5.49 12.25-12.25 12.25-6.77 0-12.25-5.49-12.25-12.25h1a11.26 11.26 0 0011.25 11.25c6.21-.01 11.24-5.04 11.25-11.25-.01-6.21-5.04-11.24-11.25-11.25a11.26 11.26 0 00-11.25 11.25h-.5zm-43.25 11.75v-.5c6.21-.01 11.24-5.04 11.25-11.25-.01-6.21-5.04-11.24-11.25-11.25a11.26 11.26 0 00-11.25 11.25 11.26 11.26 0 0011.25 11.25v1c-6.77 0-12.25-5.49-12.25-12.25 0-6.77 5.49-12.25 12.25-12.25 6.77 0 12.25 5.49 12.25 12.25 0 6.77-5.49 12.25-12.25 12.25v-.5zm-66.75-11.75h-.5c0-6.77 5.49-12.25 12.25-12.25 6.77 0 12.25 5.49 12.25 12.25 0 6.77-5.49 12.25-12.25 12.25-6.77 0-12.25-5.49-12.25-12.25h1a11.26 11.26 0 0011.25 11.25c6.21-.01 11.24-5.04 11.25-11.25-.01-6.21-5.04-11.24-11.25-11.25a11.26 11.26 0 00-11.25 11.25h-.5zm-43.25 11.75v-.5c6.21-.01 11.24-5.04 11.25-11.25-.01-6.21-5.04-11.24-11.25-11.25a11.26 11.26 0 00-11.25 11.25 11.26 11.26 0 0011.25 11.25v1c-6.77 0-12.25-5.49-12.25-12.25 0-6.77 5.49-12.25 12.25-12.25 6.77 0 12.25 5.49 12.25 12.25 0 6.77-5.49 12.25-12.25 12.25v-.5zm318.25-55.17h-.5c0-6.77 5.49-12.25 12.25-12.25 6.77 0 12.25 5.49 12.25 12.25 0 6.77-5.49 12.25-12.25 12.25-6.77 0-12.25-5.49-12.25-12.25h1a11.26 11.26 0 0011.25 11.25c6.21-.01 11.24-5.04 11.25-11.25-.01-6.21-5.04-11.24-11.25-11.25a11.26 11.26 0 00-11.25 11.25h-.5zm-43.25 11.75v-.5c6.21-.01 11.24-5.04 11.25-11.25-.01-6.21-5.04-11.24-11.25-11.25a11.26 11.26 0 00-11.25 11.25 11.26 11.26 0 0011.25 11.25v1c-6.77 0-12.25-5.49-12.25-12.25 0-6.77 5.49-12.25 12.25-12.25 6.77 0 12.25 5.49 12.25 12.25 0 6.77-5.49 12.25-12.25 12.25v-.5zm-66.75-11.75h-.5c0-6.77 5.49-12.25 12.25-12.25 6.77 0 12.25 5.49 12.25 12.25 0 6.77-5.49 12.25-12.25 12.25-6.77 0-12.25-5.49-12.25-12.25h1a11.26 11.26 0 0011.25 11.25c6.21-.01 11.24-5.04 11.25-11.25-.01-6.21-5.04-11.24-11.25-11.25a11.26 11.26 0 00-11.25 11.25h-.5zm-43.25 11.75v-.5c6.21-.01 11.24-5.04 11.25-11.25-.01-6.21-5.04-11.24-11.25-11.25a11.26 11.26 0 00-11.25 11.25 11.26 11.26 0 0011.25 11.25v1c-6.77 0-12.25-5.49-12.25-12.25 0-6.77 5.49-12.25 12.25-12.25 6.77 0 12.25 5.49 12.25 12.25 0 6.77-5.49 12.25-12.25 12.25v-.5zm-66.75-11.75h-.5c0-6.77 5.49-12.25 12.25-12.25 6.77 0 12.25 5.49 12.25 12.25 0 6.77-5.49 12.25-12.25 12.25-6.77 0-12.25-5.49-12.25-12.25h1a11.26 11.26 0 0011.25 11.25c6.21-.01 11.24-5.04 11.25-11.25-.01-6.21-5.04-11.24-11.25-11.25a11.26 11.26 0 00-11.25 11.25h-.5zm-43.25 11.75v-.5c6.21-.01 11.24-5.04 11.25-11.25-.01-6.21-5.04-11.24-11.25-11.25a11.26 11.26 0 00-11.25 11.25 11.26 11.26 0 0011.25 11.25v1c-6.77 0-12.25-5.49-12.25-12.25 0-6.77 5.49-12.25 12.25-12.25 6.77 0 12.25 5.49 12.25 12.25 0 6.77-5.49 12.25-12.25 12.25v-.5zm-66.75-11.75h-.5c0-6.77 5.49-12.25 12.25-12.25 6.77 0 12.25 5.49 12.25 12.25 0 6.77-5.49 12.25-12.25 12.25-6.77 0-12.25-5.49-12.25-12.25h1a11.26 11.26 0 0011.25 11.25c6.21-.01 11.24-5.04 11.25-11.25-.01-6.21-5.04-11.24-11.25-11.25a11.26 11.26 0 00-11.25 11.25h-.5zm341.75-31.66v-.5c6.21-.01 11.24-5.04 11.25-11.25-.01-6.21-5.04-11.24-11.25-11.25a11.26 11.26 0 00-11.25 11.25c.01 6.21 5.04 11.24 11.25 11.25v1c-6.77 0-12.25-5.49-12.25-12.25 0-6.77 5.49-12.25 12.25-12.25 6.77 0 12.25 5.49 12.25 12.25 0 6.77-5.49 12.25-12.25 12.25v-.5zm-66.75-11.76h-.5c0-6.77 5.49-12.25 12.25-12.25 6.77 0 12.25 5.49 12.25 12.25 0 6.77-5.49 12.25-12.25 12.25-6.77 0-12.25-5.49-12.25-12.25h1c.01 6.21 5.04 11.24 11.25 11.25 6.21-.01 11.24-5.04 11.25-11.25-.01-6.21-5.04-11.24-11.25-11.25a11.26 11.26 0 00-11.25 11.25h-.5zm-43.25 11.76v-.5c6.21-.01 11.24-5.04 11.25-11.25-.01-6.21-5.04-11.24-11.25-11.25a11.26 11.26 0 00-11.25 11.25c.01 6.21 5.04 11.24 11.25 11.25v1c-6.77 0-12.25-5.49-12.25-12.25 0-6.77 5.49-12.25 12.25-12.25 6.77 0 12.25 5.49 12.25 12.25 0 6.77-5.49 12.25-12.25 12.25v-.5zm-66.75-11.76h-.5c0-6.77 5.49-12.25 12.25-12.25 6.77 0 12.25 5.49 12.25 12.25 0 6.77-5.49 12.25-12.25 12.25-6.77 0-12.25-5.49-12.25-12.25h1c.01 6.21 5.04 11.24 11.25 11.25 6.21-.01 11.24-5.04 11.25-11.25-.01-6.21-5.04-11.24-11.25-11.25a11.26 11.26 0 00-11.25 11.25h-.5zm-43.25 11.76v-.5c6.21-.01 11.24-5.04 11.25-11.25-.01-6.21-5.04-11.24-11.25-11.25a11.26 11.26 0 00-11.25 11.25c.01 6.21 5.04 11.24 11.25 11.25v1c-6.77 0-12.25-5.49-12.25-12.25 0-6.77 5.49-12.25 12.25-12.25 6.77 0 12.25 5.49 12.25 12.25 0 6.77-5.49 12.25-12.25 12.25v-.5zm-66.75-11.76h-.5c0-6.77 5.49-12.25 12.25-12.25 6.77 0 12.25 5.49 12.25 12.25 0 6.77-5.49 12.25-12.25 12.25-6.77 0-12.25-5.49-12.25-12.25h1c.01 6.21 5.04 11.24 11.25 11.25 6.21-.01 11.24-5.04 11.25-11.25-.01-6.21-5.04-11.24-11.25-11.25a11.26 11.26 0 00-11.25 11.25h-.5zm-43.25 11.76v-.5c6.21-.01 11.24-5.04 11.25-11.25-.01-6.21-5.04-11.24-11.25-11.25a11.26 11.26 0 00-11.25 11.25c.01 6.21 5.04 11.24 11.25 11.25v1c-6.77 0-12.25-5.49-12.25-12.25 0-6.77 5.49-12.25 12.25-12.25 6.77 0 12.25 5.49 12.25 12.25 0 6.77-5.49 12.25-12.25 12.25v-.5zm318.25-55.17h-.5c0-6.77 5.49-12.25 12.25-12.25 6.77 0 12.25 5.49 12.25 12.25 0 6.77-5.49 12.25-12.25 12.25-6.77 0-12.25-5.49-12.25-12.25h1a11.26 11.26 0 0011.25 11.25c6.21-.01 11.24-5.04 11.25-11.25-.01-6.21-5.04-11.24-11.25-11.25a11.26 11.26 0 00-11.25 11.25h-.5zm-43.25 11.75v-.5c6.21-.01 11.24-5.04 11.25-11.25-.01-6.21-5.04-11.24-11.25-11.25a11.26 11.26 0 00-11.25 11.25 11.26 11.26 0 0011.25 11.25v1c-6.77 0-12.25-5.49-12.25-12.25 0-6.77 5.49-12.25 12.25-12.25 6.77 0 12.25 5.49 12.25 12.25 0 6.77-5.49 12.25-12.25 12.25v-.5zm-66.75-11.75h-.5c0-6.77 5.49-12.25 12.25-12.25 6.77 0 12.25 5.49 12.25 12.25 0 6.77-5.49 12.25-12.25 12.25-6.77 0-12.25-5.49-12.25-12.25h1a11.26 11.26 0 0011.25 11.25c6.21-.01 11.24-5.04 11.25-11.25-.01-6.21-5.04-11.24-11.25-11.25a11.26 11.26 0 00-11.25 11.25h-.5zm-43.25 11.75v-.5c6.21-.01 11.24-5.04 11.25-11.25-.01-6.21-5.04-11.24-11.25-11.25a11.26 11.26 0 00-11.25 11.25 11.26 11.26 0 0011.25 11.25v1c-6.77 0-12.25-5.49-12.25-12.25 0-6.77 5.49-12.25 12.25-12.25 6.77 0 12.25 5.49 12.25 12.25 0 6.77-5.49 12.25-12.25 12.25v-.5zm-66.75-11.75h-.5c0-6.77 5.49-12.25 12.25-12.25 6.77 0 12.25 5.49 12.25 12.25 0 6.77-5.49 12.25-12.25 12.25-6.77 0-12.25-5.49-12.25-12.25h1a11.26 11.26 0 0011.25 11.25c6.21-.01 11.24-5.04 11.25-11.25-.01-6.21-5.04-11.24-11.25-11.25a11.26 11.26 0 00-11.25 11.25h-.5zm-43.25 11.75v-.5c6.21-.01 11.24-5.04 11.25-11.25-.01-6.21-5.04-11.24-11.25-11.25a11.26 11.26 0 00-11.25 11.25 11.26 11.26 0 0011.25 11.25v1c-6.77 0-12.25-5.49-12.25-12.25 0-6.77 5.49-12.25 12.25-12.25 6.77 0 12.25 5.49 12.25 12.25 0 6.77-5.49 12.25-12.25 12.25v-.5zm-66.75-11.75h-.5c0-6.77 5.49-12.25 12.25-12.25 6.77 0 12.25 5.49 12.25 12.25 0 6.77-5.49 12.25-12.25 12.25-6.77 0-12.25-5.49-12.25-12.25h1a11.26 11.26 0 0011.25 11.25c6.21-.01 11.24-5.04 11.25-11.25-.01-6.21-5.04-11.24-11.25-11.25a11.26 11.26 0 00-11.25 11.25h-.5zM63.25 261.04v.5H39V89h24.75v172.54h-.5v-.5h-.5V90H40v170.54h23.25v.5h-.5.5z" fill="url(#paint0_linear)"/></g><defs><linearGradient id="paint0_linear" x1="391.131" y1="18.346" x2="98.354" y2="330.122" gradientUnits="userSpaceOnUse"><stop stop-color="#005FFF"/><stop offset="1" stop-color="#D61587"/></linearGradient><clipPath id="clip0"><path fill="#fff" transform="translate(39 89)" d="M0 0h425.25v172.54H0z"/></clipPath></defs></svg>