<svg width="770" height="554" viewBox="0 0 770 554" fill="none" xmlns="http://www.w3.org/2000/svg">
<g clip-path="url(#clip0)">
<path d="M358.02 51V93.47H235.53V51H236.53V92.47H357.02V51H358.02ZM508.49 269.94H508.99C508.99 279.58 501.18 287.39 491.55 287.39C481.92 287.39 474.11 279.58 474.11 269.94C474.11 260.3 481.92 252.49 491.55 252.49C501.19 252.49 508.99 260.3 508.99 269.94H508.49H507.99C507.97 260.85 500.63 253.51 491.55 253.49C482.47 253.51 475.13 260.86 475.11 269.94C475.13 279.03 482.47 286.37 491.55 286.39C500.63 286.37 507.98 279.03 507.99 269.94H508.49ZM447.85 269.94H448.35C448.35 279.58 440.54 287.39 430.91 287.39C421.27 287.39 413.47 279.58 413.47 269.94C413.47 260.3 421.28 252.49 430.91 252.49C440.54 252.49 448.35 260.3 448.35 269.94H447.85H447.35C447.33 260.85 439.99 253.51 430.91 253.49C421.83 253.51 414.48 260.86 414.47 269.94C414.49 279.03 421.83 286.37 430.91 286.39C439.99 286.37 447.33 279.03 447.35 269.94H447.85ZM387.21 269.94H387.71C387.71 279.58 379.9 287.39 370.27 287.39C360.63 287.39 352.83 279.58 352.83 269.94C352.83 260.3 360.64 252.49 370.27 252.49C379.9 252.49 387.71 260.3 387.71 269.94H387.21H386.71C386.69 260.85 379.35 253.51 370.27 253.49C361.19 253.51 353.85 260.85 353.83 269.94C353.85 279.03 361.19 286.37 370.27 286.39C379.35 286.37 386.69 279.03 386.71 269.94H387.21ZM144.67 269.94H145.17C145.17 279.58 137.36 287.39 127.73 287.39C118.09 287.39 110.29 279.58 110.29 269.94C110.29 260.3 118.1 252.49 127.73 252.49C137.36 252.49 145.17 260.3 145.17 269.94H144.67H144.17C144.15 260.85 136.81 253.51 127.73 253.49C118.65 253.51 111.3 260.86 111.28 269.94C111.3 279.03 118.64 286.37 127.73 286.39C136.81 286.37 144.15 279.03 144.17 269.94H144.67ZM485.21 222.52H485.71C485.71 232.16 477.9 239.97 468.27 239.97C458.63 239.97 450.83 232.16 450.83 222.52C450.83 212.88 458.64 205.07 468.27 205.07C477.9 205.07 485.71 212.88 485.71 222.52H485.21H484.71C484.69 213.44 477.35 206.09 468.27 206.07C459.19 206.09 451.84 213.44 451.83 222.52C451.85 231.61 459.19 238.95 468.27 238.97C477.35 238.95 484.69 231.61 484.71 222.52H485.21ZM424.57 222.52H425.07C425.07 232.16 417.26 239.97 407.63 239.97C398 239.97 390.19 232.16 390.19 222.52C390.19 212.88 398 205.07 407.63 205.07C417.26 205.07 425.07 212.88 425.07 222.52H424.57H424.07C424.05 213.44 416.71 206.09 407.63 206.07C398.55 206.09 391.2 213.44 391.19 222.52C391.21 231.61 398.55 238.95 407.63 238.97C416.71 238.95 424.06 231.61 424.07 222.52H424.57ZM363.93 222.52H364.43C364.43 232.16 356.62 239.97 346.99 239.97C337.35 239.97 329.55 232.16 329.55 222.52C329.55 212.88 337.36 205.07 346.99 205.07C356.62 205.07 364.43 212.88 364.43 222.52H363.93H363.43C363.41 213.44 356.07 206.09 346.99 206.07C337.91 206.09 330.56 213.44 330.54 222.52C330.56 231.61 337.9 238.95 346.99 238.97C356.07 238.95 363.42 231.61 363.43 222.52H363.93ZM303.3 222.52H303.8C303.8 232.16 295.99 239.97 286.36 239.97C276.72 239.97 268.92 232.16 268.92 222.52C268.92 212.88 276.73 205.07 286.36 205.07C295.99 205.07 303.8 212.88 303.8 222.52H303.3H302.8C302.78 213.44 295.44 206.09 286.36 206.07C277.28 206.09 269.93 213.44 269.91 222.52C269.93 231.61 277.27 238.95 286.36 238.97C295.44 238.95 302.79 231.61 302.8 222.52H303.3ZM242.66 222.52H243.16C243.16 232.16 235.35 239.97 225.72 239.97C216.09 239.97 208.28 232.16 208.28 222.52C208.28 212.88 216.09 205.07 225.72 205.07C235.35 205.07 243.16 212.88 243.16 222.52H242.66H242.16C242.14 213.44 234.8 206.09 225.72 206.07C216.64 206.09 209.29 213.44 209.28 222.52C209.3 231.61 216.64 238.95 225.72 238.97C234.8 238.95 242.15 231.61 242.16 222.52H242.66ZM182.02 222.52H182.52C182.52 232.16 174.71 239.97 165.08 239.97C155.45 239.97 147.64 232.16 147.64 222.52C147.64 212.88 155.45 205.07 165.08 205.07C174.71 205.07 182.52 212.88 182.52 222.52H182.02H181.52C181.5 213.44 174.16 206.09 165.08 206.07C156 206.09 148.65 213.44 148.64 222.52C148.66 231.61 156 238.95 165.08 238.97C174.16 238.95 181.5 231.61 181.52 222.52H182.02ZM121.38 222.52H121.88C121.88 232.16 114.07 239.97 104.44 239.97C94.81 239.97 87 232.16 87 222.52C87 212.88 94.81 205.07 104.44 205.07C114.07 205.07 121.88 212.88 121.88 222.52H121.38H120.88C120.86 213.44 113.52 206.09 104.44 206.07C95.36 206.08 88.02 213.43 88 222.52C88.02 231.61 95.36 238.95 104.44 238.97C113.52 238.95 120.87 231.61 120.88 222.52H121.38ZM508.49 175.1H508.99C508.99 184.74 501.18 192.55 491.55 192.55C481.92 192.55 474.11 184.74 474.11 175.1C474.11 165.46 481.92 157.65 491.55 157.65C501.19 157.65 508.99 165.46 508.99 175.1H508.49H507.99C507.97 166.02 500.63 158.67 491.55 158.65C482.47 158.67 475.13 166.02 475.11 175.1C475.13 184.19 482.47 191.53 491.55 191.55C500.63 191.53 507.98 184.19 507.99 175.1H508.49ZM447.85 175.1H448.35C448.35 184.74 440.54 192.55 430.91 192.55C421.27 192.55 413.47 184.74 413.47 175.1C413.47 165.46 421.28 157.65 430.91 157.65C440.54 157.65 448.35 165.46 448.35 175.1H447.85H447.35C447.33 166.02 439.99 158.67 430.91 158.65C421.83 158.67 414.48 166.02 414.47 175.1C414.49 184.19 421.83 191.53 430.91 191.55C439.99 191.53 447.33 184.19 447.35 175.1H447.85ZM387.21 175.1H387.71C387.71 184.74 379.9 192.55 370.27 192.55C360.63 192.55 352.83 184.74 352.83 175.1C352.83 165.46 360.64 157.65 370.27 157.65C379.9 157.65 387.71 165.46 387.71 175.1H387.21H386.71C386.69 166.02 379.35 158.67 370.27 158.65C361.19 158.67 353.85 166.02 353.83 175.1C353.85 184.19 361.19 191.53 370.27 191.55C379.35 191.53 386.69 184.19 386.71 175.1H387.21ZM326.58 175.1H327.08C327.08 184.74 319.27 192.55 309.64 192.55C300.01 192.55 292.2 184.74 292.2 175.1C292.2 165.46 300.01 157.65 309.64 157.65C319.27 157.65 327.08 165.46 327.08 175.1H326.58H326.08C326.06 166.02 318.72 158.67 309.64 158.65C300.56 158.67 293.21 166.02 293.2 175.1C293.22 184.19 300.56 191.53 309.64 191.55C318.72 191.53 326.07 184.19 326.08 175.1H326.58ZM265.94 175.1H266.44C266.44 184.74 258.63 192.55 249 192.55C239.37 192.55 231.56 184.74 231.56 175.1C231.56 165.46 239.37 157.65 249 157.65C258.63 157.65 266.44 165.46 266.44 175.1H265.94H265.44C265.42 166.02 258.08 158.67 249 158.65C239.92 158.67 232.57 166.02 232.56 175.1C232.58 184.19 239.92 191.53 249 191.55C258.08 191.53 265.43 184.19 265.44 175.1H265.94ZM205.31 175.1H205.81C205.81 184.74 198 192.55 188.37 192.55C178.73 192.55 170.93 184.74 170.93 175.1C170.93 165.46 178.74 157.65 188.37 157.65C198 157.65 205.81 165.46 205.81 175.1H205.31H204.81C204.79 166.02 197.45 158.67 188.37 158.65C179.29 158.67 171.94 166.02 171.93 175.1C171.95 184.19 179.29 191.53 188.37 191.55C197.45 191.53 204.8 184.19 204.81 175.1H205.31ZM144.67 175.1H145.17C145.17 184.74 137.36 192.55 127.73 192.55C118.09 192.55 110.29 184.74 110.29 175.1C110.29 165.46 118.1 157.65 127.73 157.65C137.36 157.65 145.17 165.46 145.17 175.1H144.67H144.17C144.15 166.02 136.81 158.67 127.73 158.65C118.65 158.67 111.3 166.02 111.28 175.1C111.3 184.19 118.64 191.53 127.73 191.55C136.81 191.53 144.15 184.19 144.17 175.1H144.67ZM485.21 127.68H485.71C485.71 137.32 477.9 145.13 468.27 145.13C458.63 145.13 450.83 137.32 450.83 127.68C450.83 118.04 458.64 110.23 468.27 110.23C477.9 110.23 485.71 118.04 485.71 127.68H485.21H484.71C484.69 118.6 477.35 111.24 468.27 111.23C459.19 111.25 451.84 118.6 451.83 127.68C451.85 136.77 459.19 144.12 468.27 144.13C477.35 144.11 484.69 136.76 484.71 127.68H485.21ZM424.57 127.68H425.07C425.07 137.32 417.26 145.13 407.63 145.13C398 145.13 390.19 137.32 390.19 127.68C390.19 118.04 398 110.23 407.63 110.23C417.26 110.23 425.07 118.04 425.07 127.68H424.57H424.07C424.05 118.6 416.71 111.24 407.63 111.23C398.55 111.25 391.2 118.6 391.19 127.68C391.21 136.77 398.55 144.12 407.63 144.13C416.71 144.11 424.06 136.76 424.07 127.68H424.57ZM363.93 127.68H364.43C364.43 137.32 356.62 145.13 346.99 145.13C337.35 145.13 329.55 137.32 329.55 127.68C329.55 118.04 337.36 110.23 346.99 110.23C356.62 110.23 364.43 118.04 364.43 127.68H363.93H363.43C363.41 118.6 356.07 111.24 346.99 111.23C337.91 111.25 330.56 118.6 330.54 127.68C330.56 136.77 337.9 144.12 346.99 144.13C356.07 144.11 363.42 136.76 363.43 127.68H363.93ZM303.3 127.68H303.8C303.8 137.32 295.99 145.13 286.36 145.13C276.72 145.13 268.92 137.32 268.92 127.68C268.92 118.04 276.73 110.23 286.36 110.23C295.99 110.23 303.8 118.04 303.8 127.68H303.3H302.8C302.78 118.6 295.44 111.24 286.36 111.23C277.28 111.25 269.93 118.6 269.91 127.68C269.93 136.77 277.27 144.12 286.36 144.13C295.44 144.11 302.79 136.76 302.8 127.68H303.3ZM242.66 127.68H243.16C243.16 137.32 235.35 145.13 225.72 145.13C216.09 145.13 208.28 137.32 208.28 127.68C208.28 118.04 216.09 110.23 225.72 110.23C235.35 110.23 243.16 118.04 243.16 127.68H242.66H242.16C242.14 118.6 234.8 111.24 225.72 111.23C216.64 111.25 209.29 118.6 209.28 127.68C209.3 136.77 216.64 144.12 225.72 144.13C234.8 144.11 242.15 136.76 242.16 127.68H242.66ZM182.02 127.68H182.52C182.52 137.32 174.71 145.13 165.08 145.13C155.45 145.13 147.64 137.32 147.64 127.68C147.64 118.04 155.45 110.23 165.08 110.23C174.71 110.23 182.52 118.04 182.52 127.68H182.02H181.52C181.5 118.6 174.16 111.24 165.08 111.23C156 111.24 148.65 118.59 148.64 127.68C148.66 136.77 156 144.12 165.08 144.13C174.16 144.11 181.5 136.76 181.52 127.68H182.02ZM121.38 127.68H121.88C121.88 137.32 114.07 145.13 104.44 145.13C94.81 145.13 87 137.32 87 127.68C87 118.04 94.81 110.23 104.44 110.23C114.07 110.23 121.88 118.04 121.88 127.68H121.38H120.88C120.86 118.6 113.52 111.24 104.44 111.23C95.36 111.24 88.02 118.59 88 127.68C88.02 136.77 95.36 144.12 104.44 144.13C113.52 144.11 120.87 136.76 120.88 127.68H121.38Z" fill="url(#paint0_linear)"/>
</g>
<defs>
<linearGradient id="paint0_linear" x1="449.752" y1="90.1505" x2="120.634" y2="325.775" gradientUnits="userSpaceOnUse">
<stop stop-color="#005FFF"/>
<stop offset="1" stop-color="#D61587"/>
</linearGradient>
<clipPath id="clip0">
<rect width="421.99" height="236.39" fill="white" transform="translate(87 51)"/>
</clipPath>
</defs>
</svg>
