<svg width="770" height="554" viewBox="0 0 770 554" fill="none" xmlns="http://www.w3.org/2000/svg">
<g clip-path="url(#clip0)">
<path d="M308.55 95.65V96.15H236.62V80.6H309.05V96.15H308.55V95.65H308.05V81.6H237.62V95.15H308.55V95.65H308.05H308.55ZM261.21 70.39H261.71C261.71 73.92 258.85 76.79 255.32 76.79C251.79 76.79 248.93 73.93 248.93 70.39C248.93 66.86 251.79 64 255.32 64C258.85 64 261.71 66.86 261.71 70.39H261.21H260.71C260.7 67.41 258.3 65 255.31 64.99C252.33 65 249.92 67.41 249.91 70.39C249.92 73.37 252.33 75.78 255.31 75.79C258.29 75.78 260.7 73.37 260.71 70.39H261.21ZM296.26 70.39H296.76C296.76 73.92 293.9 76.79 290.36 76.79C286.83 76.79 283.97 73.93 283.97 70.39C283.97 66.86 286.83 64 290.36 64C293.89 64 296.76 66.86 296.76 70.39H296.26H295.76C295.75 67.41 293.34 65 290.36 64.99C287.38 65 284.97 67.41 284.96 70.39C284.97 73.37 287.38 75.78 290.36 75.79C293.34 75.78 295.75 73.37 295.76 70.39H296.26ZM516.03 238.31H516.53C516.53 248.7 508.11 257.12 497.72 257.12C487.33 257.12 478.91 248.7 478.91 238.31C478.91 227.92 487.33 219.5 497.72 219.5C508.11 219.5 516.53 227.92 516.53 238.31H516.03H515.53C515.51 228.47 507.56 220.52 497.72 220.5C487.89 220.52 479.93 228.47 479.91 238.31C479.93 248.14 487.88 256.1 497.72 256.12C507.56 256.1 515.51 248.15 515.53 238.31H516.03ZM66.12 238.31H66.62C66.62 248.7 58.2 257.12 47.81 257.12C37.42 257.12 29 248.7 29 238.31C29 227.92 37.42 219.5 47.81 219.5C58.2 219.5 66.62 227.92 66.62 238.31H66.12H65.62C65.6 228.47 57.65 220.52 47.81 220.5C37.97 220.52 30.02 228.47 30 238.31C30.02 248.14 37.97 256.1 47.81 256.12C57.64 256.1 65.6 248.15 65.62 238.31H66.12ZM286.03 238.31H286.53C286.53 248.7 278.11 257.12 267.72 257.12C257.33 257.12 248.91 248.7 248.91 238.31C248.91 227.92 257.33 219.5 267.72 219.5C278.11 219.5 286.53 227.92 286.53 238.31H286.03H285.53C285.51 228.47 277.56 220.52 267.72 220.5C257.89 220.52 249.93 228.47 249.91 238.31C249.93 248.14 257.88 256.1 267.72 256.12C277.56 256.1 285.51 248.15 285.53 238.31H286.03ZM406.63 156.98H407.13C407.13 167.37 398.71 175.79 388.32 175.79C377.93 175.79 369.51 167.37 369.51 156.98C369.51 146.59 377.93 138.17 388.32 138.17C398.71 138.17 407.13 146.59 407.13 156.98H406.63H406.13C406.11 147.15 398.16 139.19 388.32 139.17C378.49 139.19 370.53 147.14 370.51 156.98C370.53 166.81 378.48 174.77 388.32 174.79C398.15 174.77 406.11 166.82 406.13 156.98H406.63ZM176.63 156.98H177.13C177.13 167.37 168.71 175.79 158.32 175.79C147.93 175.79 139.51 167.37 139.51 156.98C139.51 146.59 147.93 138.17 158.32 138.17C168.71 138.17 177.13 146.59 177.13 156.98H176.63H176.13C176.11 147.15 168.16 139.19 158.32 139.17C148.49 139.19 140.53 147.14 140.51 156.98C140.53 166.81 148.48 174.77 158.32 174.79C168.15 174.77 176.11 166.82 176.13 156.98H176.63Z" fill="url(#paint0_linear)"/>
</g>
<defs>
<linearGradient id="paint0_linear" x1="595.278" y1="73.4809" x2="-184.581" y2="385.402" gradientUnits="userSpaceOnUse">
<stop stop-color="#005FFF"/>
<stop offset="1" stop-color="#D61587"/>
</linearGradient>
<clipPath id="clip0">
<rect width="487.53" height="193.12" fill="white" transform="translate(29 64)"/>
</clipPath>
</defs>
</svg>
