<svg width="770" height="554" viewBox="0 0 770 554" fill="none" xmlns="http://www.w3.org/2000/svg">
<g clip-path="url(#clip0)">
<path d="M451.99 251.73V251.23C458.2 251.22 463.23 246.19 463.24 239.98C463.23 233.77 458.2 228.74 451.99 228.73C445.77 228.74 440.75 233.77 440.74 239.98C440.75 246.2 445.78 251.22 451.99 251.23V251.73V252.23C445.22 252.23 439.74 246.74 439.74 239.98C439.74 233.21 445.23 227.73 451.99 227.73C458.76 227.73 464.24 233.22 464.24 239.98C464.24 246.75 458.75 252.23 451.99 252.23V251.73ZM385.24 239.98H384.74C384.74 233.21 390.23 227.73 396.99 227.73C403.76 227.73 409.24 233.22 409.24 239.98C409.24 246.75 403.75 252.23 396.99 252.23C390.22 252.23 384.74 246.74 384.74 239.98H385.24H385.74C385.75 246.2 390.78 251.22 396.99 251.23C403.2 251.22 408.23 246.19 408.24 239.98C408.23 233.77 403.2 228.74 396.99 228.73C390.77 228.74 385.75 233.77 385.74 239.98H385.24ZM341.99 251.73V251.23C348.2 251.22 353.23 246.19 353.24 239.98C353.23 233.77 348.2 228.74 341.99 228.73C335.77 228.74 330.75 233.77 330.74 239.98C330.75 246.2 335.78 251.22 341.99 251.23V251.73V252.23C335.22 252.23 329.74 246.74 329.74 239.98C329.74 233.21 335.23 227.73 341.99 227.73C348.76 227.73 354.24 233.22 354.24 239.98C354.24 246.75 348.75 252.23 341.99 252.23V251.73ZM275.24 239.98H274.74C274.74 233.21 280.23 227.73 286.99 227.73C293.76 227.73 299.24 233.22 299.24 239.98C299.24 246.75 293.75 252.23 286.99 252.23C280.22 252.23 274.74 246.74 274.74 239.98H275.24H275.74C275.75 246.2 280.78 251.22 286.99 251.23C293.2 251.22 298.23 246.19 298.24 239.98C298.23 233.77 293.2 228.74 286.99 228.73C280.77 228.74 275.75 233.77 275.74 239.98H275.24ZM231.99 251.73V251.23C238.2 251.22 243.23 246.19 243.24 239.98C243.23 233.77 238.2 228.74 231.99 228.73C225.77 228.74 220.75 233.77 220.74 239.98C220.75 246.2 225.78 251.22 231.99 251.23V251.73V252.23C225.22 252.23 219.74 246.74 219.74 239.98C219.74 233.21 225.23 227.73 231.99 227.73C238.76 227.73 244.24 233.22 244.24 239.98C244.24 246.75 238.75 252.23 231.99 252.23V251.73ZM165.24 239.98H164.74C164.74 233.21 170.23 227.73 176.99 227.73C183.76 227.73 189.24 233.22 189.24 239.98C189.24 246.75 183.75 252.23 176.99 252.23C170.22 252.23 164.74 246.74 164.74 239.98H165.24H165.74C165.75 246.2 170.78 251.22 176.99 251.23C183.2 251.22 188.23 246.19 188.24 239.98C188.23 233.77 183.2 228.74 176.99 228.73C170.77 228.74 165.75 233.77 165.74 239.98H165.24ZM121.99 251.73V251.23C128.2 251.22 133.23 246.19 133.24 239.98C133.23 233.77 128.2 228.74 121.99 228.73C115.77 228.74 110.75 233.77 110.74 239.98C110.75 246.2 115.78 251.22 121.99 251.23V251.73V252.23C115.22 252.23 109.74 246.74 109.74 239.98C109.74 233.21 115.23 227.73 121.99 227.73C128.76 227.73 134.24 233.22 134.24 239.98C134.24 246.75 128.75 252.23 121.99 252.23V251.73ZM440.24 196.56H439.74C439.74 189.79 445.23 184.31 451.99 184.31C458.76 184.31 464.24 189.8 464.24 196.56C464.24 203.33 458.75 208.81 451.99 208.81C445.22 208.81 439.74 203.32 439.74 196.56H440.24H440.74C440.75 202.78 445.78 207.8 451.99 207.81C458.2 207.8 463.23 202.77 463.24 196.56C463.23 190.35 458.2 185.32 451.99 185.31C445.77 185.32 440.75 190.35 440.74 196.56H440.24ZM396.99 208.31V207.81C403.2 207.8 408.23 202.77 408.24 196.56C408.23 190.35 403.2 185.32 396.99 185.31C390.77 185.32 385.75 190.35 385.74 196.56C385.75 202.78 390.78 207.8 396.99 207.81V208.31V208.81C390.22 208.81 384.74 203.32 384.74 196.56C384.74 189.79 390.23 184.31 396.99 184.31C403.76 184.31 409.24 189.8 409.24 196.56C409.24 203.33 403.75 208.81 396.99 208.81V208.31ZM330.24 196.56H329.74C329.74 189.79 335.23 184.31 341.99 184.31C348.76 184.31 354.24 189.8 354.24 196.56C354.24 203.33 348.75 208.81 341.99 208.81C335.22 208.81 329.74 203.32 329.74 196.56H330.24H330.74C330.75 202.78 335.78 207.8 341.99 207.81C348.2 207.8 353.23 202.77 353.24 196.56C353.23 190.35 348.2 185.32 341.99 185.31C335.77 185.32 330.75 190.35 330.74 196.56H330.24ZM286.99 208.31V207.81C293.2 207.8 298.23 202.77 298.24 196.56C298.23 190.35 293.2 185.32 286.99 185.31C280.77 185.32 275.75 190.35 275.74 196.56C275.75 202.78 280.78 207.8 286.99 207.81V208.31V208.81C280.22 208.81 274.74 203.32 274.74 196.56C274.74 189.79 280.23 184.31 286.99 184.31C293.76 184.31 299.24 189.8 299.24 196.56C299.24 203.33 293.75 208.81 286.99 208.81V208.31ZM220.24 196.56H219.74C219.74 189.79 225.23 184.31 231.99 184.31C238.76 184.31 244.24 189.8 244.24 196.56C244.24 203.33 238.75 208.81 231.99 208.81C225.22 208.81 219.74 203.32 219.74 196.56H220.24H220.74C220.75 202.78 225.78 207.8 231.99 207.81C238.2 207.8 243.23 202.77 243.24 196.56C243.23 190.35 238.2 185.32 231.99 185.31C225.77 185.32 220.75 190.35 220.74 196.56H220.24ZM176.99 208.31V207.81C183.2 207.8 188.23 202.77 188.24 196.56C188.23 190.35 183.2 185.32 176.99 185.31C170.77 185.32 165.75 190.35 165.74 196.56C165.75 202.78 170.78 207.8 176.99 207.81V208.31V208.81C170.22 208.81 164.74 203.32 164.74 196.56C164.74 189.79 170.23 184.31 176.99 184.31C183.76 184.31 189.24 189.8 189.24 196.56C189.24 203.33 183.75 208.81 176.99 208.81V208.31ZM110.24 196.56H109.74C109.74 189.79 115.23 184.31 121.99 184.31C128.76 184.31 134.24 189.8 134.24 196.56C134.24 203.33 128.75 208.81 121.99 208.81C115.22 208.81 109.74 203.32 109.74 196.56H110.24H110.74C110.75 202.78 115.78 207.8 121.99 207.81C128.2 207.8 133.23 202.77 133.24 196.56C133.23 190.35 128.2 185.32 121.99 185.31C115.77 185.32 110.75 190.35 110.74 196.56H110.24ZM451.99 164.9V164.4C458.2 164.39 463.23 159.36 463.24 153.15C463.23 146.94 458.2 141.91 451.99 141.9C445.77 141.91 440.75 146.94 440.74 153.15C440.75 159.36 445.78 164.39 451.99 164.4V164.9V165.4C445.22 165.4 439.74 159.91 439.74 153.15C439.74 146.38 445.23 140.9 451.99 140.9C458.76 140.9 464.24 146.39 464.24 153.15C464.24 159.92 458.75 165.4 451.99 165.4V164.9ZM385.24 153.14H384.74C384.74 146.37 390.23 140.89 396.99 140.89C403.76 140.89 409.24 146.38 409.24 153.14C409.24 159.91 403.75 165.39 396.99 165.39C390.22 165.39 384.74 159.9 384.74 153.14H385.24H385.74C385.75 159.35 390.78 164.38 396.99 164.39C403.2 164.38 408.23 159.35 408.24 153.14C408.23 146.93 403.2 141.9 396.99 141.89C390.77 141.9 385.75 146.93 385.74 153.14H385.24ZM341.99 164.9V164.4C348.2 164.39 353.23 159.36 353.24 153.15C353.23 146.94 348.2 141.91 341.99 141.9C335.77 141.91 330.75 146.94 330.74 153.15C330.75 159.36 335.78 164.39 341.99 164.4V164.9V165.4C335.22 165.4 329.74 159.91 329.74 153.15C329.74 146.38 335.23 140.9 341.99 140.9C348.76 140.9 354.24 146.39 354.24 153.15C354.24 159.92 348.75 165.4 341.99 165.4V164.9ZM275.24 153.14H274.74C274.74 146.37 280.23 140.89 286.99 140.89C293.76 140.89 299.24 146.38 299.24 153.14C299.24 159.91 293.75 165.39 286.99 165.39C280.22 165.39 274.74 159.9 274.74 153.14H275.24H275.74C275.75 159.35 280.78 164.38 286.99 164.39C293.2 164.38 298.23 159.35 298.24 153.14C298.23 146.93 293.2 141.9 286.99 141.89C280.77 141.9 275.75 146.93 275.74 153.14H275.24ZM231.99 164.9V164.4C238.2 164.39 243.23 159.36 243.24 153.15C243.23 146.94 238.2 141.91 231.99 141.9C225.77 141.91 220.75 146.94 220.74 153.15C220.75 159.36 225.78 164.39 231.99 164.4V164.9V165.4C225.22 165.4 219.74 159.91 219.74 153.15C219.74 146.38 225.23 140.9 231.99 140.9C238.76 140.9 244.24 146.39 244.24 153.15C244.24 159.92 238.75 165.4 231.99 165.4V164.9ZM165.24 153.14H164.74C164.74 146.37 170.23 140.89 176.99 140.89C183.76 140.89 189.24 146.38 189.24 153.14C189.24 159.91 183.75 165.39 176.99 165.39C170.22 165.39 164.74 159.9 164.74 153.14H165.24H165.74C165.75 159.35 170.78 164.38 176.99 164.39C183.2 164.38 188.23 159.35 188.24 153.14C188.23 146.93 183.2 141.9 176.99 141.89C170.77 141.9 165.75 146.93 165.74 153.14H165.24ZM121.99 164.9V164.4C128.2 164.39 133.23 159.36 133.24 153.15C133.23 146.94 128.2 141.91 121.99 141.9C115.77 141.91 110.75 146.94 110.74 153.15C110.75 159.36 115.78 164.39 121.99 164.4V164.9V165.4C115.22 165.4 109.74 159.91 109.74 153.15C109.74 146.38 115.23 140.9 121.99 140.9C128.76 140.9 134.24 146.39 134.24 153.15C134.24 159.92 128.75 165.4 121.99 165.4V164.9ZM440.24 109.73H439.74C439.74 102.96 445.23 97.48 451.99 97.48C458.76 97.48 464.24 102.97 464.24 109.73C464.24 116.5 458.75 121.98 451.99 121.98C445.22 121.98 439.74 116.49 439.74 109.73H440.24H440.74C440.75 115.95 445.78 120.97 451.99 120.98C458.2 120.97 463.23 115.94 463.24 109.73C463.23 103.52 458.2 98.49 451.99 98.48C445.77 98.49 440.75 103.52 440.74 109.73H440.24ZM396.99 121.48V120.98C403.2 120.97 408.23 115.94 408.24 109.73C408.23 103.52 403.2 98.49 396.99 98.48C390.77 98.49 385.75 103.52 385.74 109.73C385.75 115.95 390.78 120.97 396.99 120.98V121.48V121.98C390.22 121.98 384.74 116.49 384.74 109.73C384.74 102.96 390.23 97.48 396.99 97.48C403.76 97.48 409.24 102.97 409.24 109.73C409.24 116.5 403.75 121.98 396.99 121.98V121.48ZM330.24 109.73H329.74C329.74 102.96 335.23 97.48 341.99 97.48C348.76 97.48 354.24 102.97 354.24 109.73C354.24 116.5 348.75 121.98 341.99 121.98C335.22 121.98 329.74 116.49 329.74 109.73H330.24H330.74C330.75 115.95 335.78 120.97 341.99 120.98C348.2 120.97 353.23 115.94 353.24 109.73C353.23 103.52 348.2 98.49 341.99 98.48C335.77 98.49 330.75 103.52 330.74 109.73H330.24ZM286.99 121.48V120.98C293.2 120.97 298.23 115.94 298.24 109.73C298.23 103.52 293.2 98.49 286.99 98.48C280.77 98.49 275.75 103.52 275.74 109.73C275.75 115.95 280.78 120.97 286.99 120.98V121.48V121.98C280.22 121.98 274.74 116.49 274.74 109.73C274.74 102.96 280.23 97.48 286.99 97.48C293.76 97.48 299.24 102.97 299.24 109.73C299.24 116.5 293.75 121.98 286.99 121.98V121.48ZM220.24 109.73H219.74C219.74 102.96 225.23 97.48 231.99 97.48C238.76 97.48 244.24 102.97 244.24 109.73C244.24 116.5 238.75 121.98 231.99 121.98C225.22 121.98 219.74 116.49 219.74 109.73H220.24H220.74C220.75 115.95 225.78 120.97 231.99 120.98C238.2 120.97 243.23 115.94 243.24 109.73C243.23 103.52 238.2 98.49 231.99 98.48C225.77 98.49 220.75 103.52 220.74 109.73H220.24ZM176.99 121.48V120.98C183.2 120.97 188.23 115.94 188.24 109.73C188.23 103.52 183.2 98.49 176.99 98.48C170.77 98.49 165.75 103.52 165.74 109.73C165.75 115.95 170.78 120.97 176.99 120.98V121.48V121.98C170.22 121.98 164.74 116.49 164.74 109.73C164.74 102.96 170.23 97.48 176.99 97.48C183.76 97.48 189.24 102.97 189.24 109.73C189.24 116.5 183.75 121.98 176.99 121.98V121.48ZM110.24 109.73H109.74C109.74 102.96 115.23 97.48 121.99 97.48C128.76 97.48 134.24 102.97 134.24 109.73C134.24 116.5 128.75 121.98 121.99 121.98C115.22 121.98 109.74 116.49 109.74 109.73H110.24H110.74C110.75 115.95 115.78 120.97 121.99 120.98C128.2 120.97 133.23 115.94 133.24 109.73C133.23 103.52 128.2 98.49 121.99 98.48C115.77 98.49 110.75 103.52 110.74 109.73H110.24ZM63.25 261.04V261.54H39V89H63.75V261.54H63.25V261.04H62.75V90H40V260.54H63.25V261.04H62.75H63.25Z" fill="url(#paint0_linear)"/>
</g>
<defs>
<linearGradient id="paint0_linear" x1="391.131" y1="18.3455" x2="98.3543" y2="330.122" gradientUnits="userSpaceOnUse">
<stop stop-color="#005FFF"/>
<stop offset="1" stop-color="#D61587"/>
</linearGradient>
<clipPath id="clip0">
<rect width="425.25" height="172.54" fill="white" transform="translate(39 89)"/>
</clipPath>
</defs>
</svg>
